# xmcd
#
# Track frame offsets: 
#        150
#        14140
#        33320
#        42782
#        61877
#        71142
#        86087
#        102045
#        114647
#        127462
#        142777
#        157875
#        169397
#        181342
#        193370
#        205600
#        218572
#        234312
#        245862
#        259477
#        275420
#
# Disc length: 3828 seconds
#
# Revision: 4
# Processed by: cddbd v1.5.2PL0 Copyright (c) Steve Scherf et al.
# Submitted via: ExactAudioCopy v0.95b4
#
DISCID=3d0ef215
DTITLE=Bobbie Gentry - Ode To Bobbie Gentry: The Capitol Years
DYEAR=2000
DGENRE=Pop
TTITLE0=Mississippi Delta
TTITLE1=Fancy
TTITLE2=Son Of A Preacher Man
TTITLE3=Ode To Billy Joe
TTITLE4=Touch 'Em With Love
TTITLE5=You've Made Me So Very Happy
TTITLE6=The Girl From Cincinatti
TTITLE7=In The Ghetto
TTITLE8=Hushabye Mountain
TTITLE9=I Wouldn't Be Surprised
TTITLE10=Apartment 21
TTITLE11=He Made A Woman Out Of Me
TTITLE12=Find 'Em, Fool 'Em, Forget About 'Em
TTITLE13=Skip Along Sam
TTITLE14=Show Off
TTITLE15=I'll Never Fall In Love Again
TTITLE16=Stormy
TTITLE17=Chickasaw County Girl
TTITLE18=Big Boss Man
TTITLE19=Ace Insurance Man
TTITLE20=Reunion
EXTD=BOBBIE GENTRY - ODE TO BOBBY GENTRY: THE CAPITOL YEARS\n(1967 - 1
EXTD=969]\n\nZonophone - EMI\nDigitally remastered by Ron Hill @ Abbey
EXTD=Road Studios, London\n7243 5277192 9
EXTT0=
EXTT1=
EXTT2=
EXTT3=
EXTT4=
EXTT5=
EXTT6=
EXTT7=
EXTT8=
EXTT9=
EXTT10=
EXTT11=
EXTT12=
EXTT13=
EXTT14=
EXTT15=
EXTT16=
EXTT17=
EXTT18=
EXTT19=
EXTT20=
PLAYORDER=
